<svg width="1856" height="448" viewBox="0 0 1856 448" fill="none" xmlns="http://www.w3.org/2000/svg">
<g opacity="0.04">
<path d="M593.531 457V282.391H660.211C673.023 282.391 684.078 284.656 693.375 289.188C702.75 293.719 709.938 300.164 714.938 308.523C720.016 316.883 722.555 326.766 722.555 338.172C722.555 349.656 719.977 359.578 714.82 367.938C709.664 376.297 702.359 382.781 692.906 387.391C683.531 391.922 672.438 394.188 659.625 394.188H624.469V457H593.531ZM624.469 367.703H658.453C668.844 367.703 677.047 365.086 683.062 359.852C689.078 354.539 692.086 347.312 692.086 338.172C692.086 329.109 689.078 321.961 683.062 316.727C677.047 311.492 668.844 308.875 658.453 308.875H624.469V367.703Z" fill="white"/>
<path d="M1030.09 457L991.887 333.25H1022.94L1035.71 380.242C1037.67 387.586 1039.54 395.164 1041.34 402.977C1043.14 410.789 1044.97 418.523 1046.85 426.18C1048.72 418.523 1050.64 410.789 1052.59 402.977C1054.54 395.164 1056.54 387.586 1058.57 380.242L1071.69 333.25H1099L1112 380.242C1113.96 387.586 1115.87 395.125 1117.75 402.859C1119.7 410.594 1121.65 418.289 1123.61 425.945C1125.4 418.289 1127.2 410.594 1129 402.859C1130.79 395.125 1132.67 387.586 1134.62 380.242L1147.39 333.25H1178.8L1140.48 457H1109.78L1094.78 405.438C1093.14 399.734 1091.54 393.875 1089.97 387.859C1088.41 381.844 1086.85 375.828 1085.29 369.812C1083.8 375.828 1082.28 381.844 1080.71 387.859C1079.15 393.875 1077.51 399.734 1075.79 405.438L1060.56 457H1030.09ZM1228.21 459.812C1215.87 459.812 1205.16 457.039 1196.1 451.492C1187.04 445.945 1180.05 438.328 1175.13 428.641C1170.28 418.875 1167.86 407.742 1167.86 395.242C1167.86 382.664 1170.36 371.531 1175.36 361.844C1180.44 352.078 1187.43 344.422 1196.34 338.875C1205.24 333.25 1215.48 330.438 1227.04 330.438C1238.91 330.438 1249.31 333.172 1258.21 338.641C1267.12 344.109 1274.03 351.688 1278.95 361.375C1283.88 370.984 1286.34 382.117 1286.34 394.773V402.859H1196.81C1197.2 412.938 1200.16 421.062 1205.71 427.234C1211.26 433.406 1218.99 436.492 1228.91 436.492C1236.34 436.492 1242.47 434.891 1247.31 431.688C1252.16 428.406 1255.44 424.109 1257.16 418.797H1284.81C1283.25 426.844 1279.81 433.953 1274.5 440.125C1269.27 446.297 1262.66 451.141 1254.7 454.656C1246.73 458.094 1237.9 459.812 1228.21 459.812ZM1197.04 382.469H1257.98C1257.04 373.641 1253.84 366.688 1248.37 361.609C1242.98 356.453 1236.02 353.875 1227.51 353.875C1218.91 353.875 1211.92 356.453 1206.53 361.609C1201.22 366.688 1198.06 373.641 1197.04 382.469ZM1289.69 457V333.25H1318.17V353.758H1318.52C1320.79 346.727 1324.34 341.375 1329.19 337.703C1334.11 333.953 1340.55 332.078 1348.52 332.078C1350.55 332.078 1352.35 332.156 1353.91 332.312C1355.55 332.391 1356.96 332.469 1358.13 332.547V358.797C1357.04 358.641 1355.16 358.445 1352.51 358.211C1349.85 357.977 1347.08 357.859 1344.19 357.859C1337.15 357.859 1331.22 360.281 1326.37 365.125C1321.61 369.969 1319.22 377.234 1319.22 386.922V457H1289.69ZM1384.41 457L1446.76 282.391H1485.66L1547.77 457H1513.67L1499.73 415.281H1431.99L1417.69 457H1384.41ZM1440.66 389.852H1491.29L1483.09 365.242C1480.51 357.195 1477.85 348.797 1475.12 340.047C1472.46 331.297 1469.49 321.414 1466.21 310.398C1462.93 321.414 1459.92 331.297 1457.19 340.047C1454.45 348.797 1451.76 357.195 1449.1 365.242L1440.66 389.852ZM1577.96 282.391V457H1547.03V282.391H1577.96Z" fill="white"/>
<rect x="748.323" y="355.884" width="223.719" height="90.4722" rx="45.2361" stroke="white" stroke-width="21.7678"/>
<path d="M325.923 260.694L452.531 0L202.563 319.908H319.281L192.672 580.602L442.64 260.694H325.923Z" fill="white"/>
<path d="M138.525 290.304C138.525 190.054 221.001 108.496 322.376 108.496C329.457 108.496 336.446 108.895 343.321 109.669L361.88 85.9165C348.953 83.4884 335.758 82.2651 322.376 82.2651C293.981 82.2651 266.429 87.7673 240.484 98.6189C215.431 109.098 192.934 124.097 173.618 143.198C154.301 162.3 139.135 184.547 128.537 209.322C117.564 234.978 112 262.225 112 290.304C112 318.383 117.564 345.629 128.537 371.286C139.134 396.06 154.301 418.308 173.618 437.41C188.521 452.147 205.32 464.44 223.723 474.101L276.069 368.107L212.026 435.631C167.421 402.427 138.525 349.641 138.525 290.304Z" fill="white"/>
<path d="M516.462 209.333C505.865 184.558 490.698 162.311 471.382 143.209C456.478 128.472 439.68 116.179 421.276 106.518L374.653 204.865L432.954 144.973C477.57 178.176 506.474 230.97 506.474 290.316C506.474 390.565 423.999 472.124 322.623 472.124C315.542 472.124 308.553 471.725 301.679 470.951L283.119 494.703C296.047 497.131 309.242 498.354 322.623 498.354C351.018 498.354 378.57 492.852 404.515 482C429.569 471.521 452.065 456.522 471.382 437.421C490.698 418.319 505.865 396.072 516.462 371.297C527.435 345.641 533 318.394 533 290.315C533 262.236 527.435 234.989 516.462 209.333Z" fill="white"/>
</g>
</svg>
